<?xml version="1.0" encoding="utf-8"?>
<!-- Generator: Adobe Illustrator 25.0.1, SVG Export Plug-In . SVG Version: 6.00 Build 0)  -->
<svg version="1.1" xmlns="http://www.w3.org/2000/svg" xmlns:xlink="http://www.w3.org/1999/xlink" x="0px" y="0px"
	 viewBox="0 0 595.28 232.66" style="enable-background:new 0 0 595.28 232.66;" xml:space="preserve">
<style type="text/css">
	.st0{fill:none;stroke:#FFFFFF;stroke-width:16;}
	.st1{fill:#0E0D1C;}
	.st2{fill:#FFFFFF;}
</style>
<g id="Lag_1">
	<g>
		<g>
			<path d="M14.69,65.3l19.13-3.58l11.45,39.48l26.99-4.29l1.12,8.67l6.58-29.28l-8.19-30.19L82.03,40L14.73,58.06l-0.3-25.33
				l71.77-9.12l7.57,13.3l11.42,35.93L92.46,114.7l-66.7,22.64L14.69,65.3z"/>
			<path d="M151.43,45.47l-25.88,81.02l-26.01-4.55l38.36-97.93h20.29l37.32,97.93l-23.54,4.42l-28.48-11.44l11.7-22.37l8.58,11.05
				l-14.7-41.48L151.43,45.47z"/>
			<path d="M198.51,109.32l-10.92-36.83l13.54-42.42l60.49-18.94l10.79,29.25l-50.97,8.17l-0.87-8.88l-7.29,29.88l7.95,30.76
				l-10.58,6.06l69.02-17.3l-0.35,25.98L206,123.01L198.51,109.32z"/>
			<path d="M289.13,16.51l20.09-0.28l0.03,39.29l37.98-1.95l-0.13-36.85l25.96,4.28l-1.88,31.2l11.71-0.81l-2.86,26.19l-10.18,0.01
				l-2.27,40.61l-20.22,0.28l-0.06-40.97l-37.88-0.24l0.05,40.58l-25.95-4.15l2.07-36.49l-2.96,0.04l-1.31-20.21l5.41-0.33
				L289.13,16.51z"/>
			<path d="M484.92,23.63l-3.97,97.43l-26.27,1.62l7.15-71.25l-5.13,12.28c-3.53,6.01-8.05,12.82-13.57,20.43l-20.23-3.68
				l-9.16-21.53l-2.31-13.11l-8.69,71.07l-25.27-7.36l17.56-95.92l20.13,2.24l20.41,42.9l29.21-37.38L484.92,23.63z"/>
			<path d="M542.36,48.29l-33.63,82.63l-26.83-6.87l48.05-99.29l21.22,1.64l31.09,105.43l-24.97,2.72l-28.86-14.28l14.05-22.44
				l8.08,12.26l-12.01-44.57L542.36,48.29z"/>
			<path d="M90.81,155.03l3.26,15.38l23.69-8.87l-1.01,18.37l-19.99,3.76l6.48,31.49l-20.41,0.88l-9.86-69.91l51-16.18l0.78,20.44
				L90.81,155.03z"/>
			<path d="M162.42,151.72l-19.93,62.39l-20.03-3.51L152,135.19h15.62l28.74,75.41l-18.13,3.41l-21.93-8.81l9.01-17.23l6.61,8.51
				l-11.32-31.95L162.42,151.72z"/>
			<path d="M252.45,215.01l-25.94-46.57l-2.9-9.91l-0.6,55.58l-20.13-3.51l5.31-75.51h15.72l26.14,42.36l2.7,15.42l0.6-56.99
				l20.13,3.61l-5.41,75.51H252.45z"/>
			<path d="M287.77,155.02l15.62,0.01l3.17,32.85l21.93,0.62l-0.41,7.01l9.53-22.12l-1.98-25.04l9.02-3.3l-55.79,4.25l3.52-20.03
				l57.98,3.46l4,11.62l3.68,30.05l-16.25,31.13l-55.99,7.96L287.77,155.02z"/>
			<path d="M364.5,201.25l-3.59-29.9l16.04-30.99l49.23-6.68l1.69,9.07l4.78-4.58l7.18,40.36l-13.65,37.77l-57.7-3.49L364.5,201.25z
				 M417.72,157.61l-27.5-0.3l0.5-6.98l-9.57,22.12l2.09,24.81l-8.97,3.29l36.57-2.69l7.57-17.84L417.72,157.61z"/>
			<path d="M528.34,140.04l-4.64,75.56l-20.42,0.84l6.69-55.18l-4.18,9.45c-2.83,4.61-6.45,9.82-10.86,15.64l-15.64-3.18
				l-6.76-16.86l-1.58-10.21l-7.88,55.03l-19.5-6.11l15.16-74.17l15.59,2.06l15.15,33.62l23.27-28.54L528.34,140.04z"/>
		</g>
		<g>
			<path class="st0" d="M14.69,65.3l19.13-3.58l11.45,39.48l26.99-4.29l1.12,8.67l6.58-29.28l-8.19-30.19L82.03,40L14.73,58.06
				l-0.3-25.33l71.77-9.12l7.57,13.3l11.42,35.93L92.46,114.7l-66.7,22.64L14.69,65.3z"/>
			<path class="st0" d="M151.43,45.47l-25.88,81.02l-26.01-4.55l38.36-97.93h20.29l37.32,97.93l-23.54,4.42l-28.48-11.44l11.7-22.37
				l8.58,11.05l-14.7-41.48L151.43,45.47z"/>
			<path class="st0" d="M198.51,109.32l-10.92-36.83l13.54-42.42l60.49-18.94l10.79,29.25l-50.97,8.17l-0.87-8.88l-7.29,29.88
				l7.95,30.76l-10.58,6.06l69.02-17.3l-0.35,25.98L206,123.01L198.51,109.32z"/>
			<path class="st0" d="M289.13,16.51l20.09-0.28l0.03,39.29l37.98-1.95l-0.13-36.85l25.96,4.28l-1.88,31.2l11.71-0.81l-2.86,26.19
				l-10.18,0.01l-2.27,40.61l-20.22,0.28l-0.06-40.97l-37.88-0.24l0.05,40.58l-25.95-4.15l2.07-36.49l-2.96,0.04l-1.31-20.21
				l5.41-0.33L289.13,16.51z"/>
			<path class="st0" d="M484.92,23.63l-3.97,97.43l-26.27,1.62l7.15-71.25l-5.13,12.28c-3.53,6.01-8.05,12.82-13.57,20.43
				l-20.23-3.68l-9.16-21.53l-2.31-13.11l-8.69,71.07l-25.27-7.36l17.56-95.92l20.13,2.24l20.41,42.9l29.21-37.38L484.92,23.63z"/>
			<path class="st0" d="M542.36,48.29l-33.63,82.63l-26.83-6.87l48.05-99.29l21.22,1.64l31.09,105.43l-24.97,2.72l-28.86-14.28
				l14.05-22.44l8.08,12.26l-12.01-44.57L542.36,48.29z"/>
			<path class="st0" d="M90.81,155.03l3.26,15.38l23.69-8.87l-1.01,18.37l-19.99,3.76l6.48,31.49l-20.41,0.88l-9.86-69.91l51-16.18
				l0.78,20.44L90.81,155.03z"/>
			<path class="st0" d="M162.42,151.72l-19.93,62.39l-20.03-3.51L152,135.19h15.62l28.74,75.41l-18.13,3.41l-21.93-8.81l9.01-17.23
				l6.61,8.51l-11.32-31.95L162.42,151.72z"/>
			<path class="st0" d="M252.45,215.01l-25.94-46.57l-2.9-9.91l-0.6,55.58l-20.13-3.51l5.31-75.51h15.72l26.14,42.36l2.7,15.42
				l0.6-56.99l20.13,3.61l-5.41,75.51H252.45z"/>
			<path class="st0" d="M287.77,155.02l15.62,0.01l3.17,32.85l21.93,0.62l-0.41,7.01l9.53-22.12l-1.98-25.04l9.02-3.3l-55.79,4.25
				l3.52-20.03l57.98,3.46l4,11.62l3.68,30.05l-16.25,31.13l-55.99,7.96L287.77,155.02z"/>
			<path class="st0" d="M364.5,201.25l-3.59-29.9l16.04-30.99l49.23-6.68l1.69,9.07l4.78-4.58l7.18,40.36l-13.65,37.77l-57.7-3.49
				L364.5,201.25z M417.72,157.61l-27.5-0.3l0.5-6.98l-9.57,22.12l2.09,24.81l-8.97,3.29l36.57-2.69l7.57-17.84L417.72,157.61z"/>
			<path class="st0" d="M528.34,140.04l-4.64,75.56l-20.42,0.84l6.69-55.18l-4.18,9.45c-2.83,4.61-6.45,9.82-10.86,15.64
				l-15.64-3.18l-6.76-16.86l-1.58-10.21l-7.88,55.03l-19.5-6.11l15.16-74.17l15.59,2.06l15.15,33.62l23.27-28.54L528.34,140.04z"/>
		</g>
		<g>
			<path class="st1" d="M14.69,65.3l19.13-3.58l11.45,39.48l26.99-4.29l1.12,8.67l6.58-29.28l-8.19-30.19L82.03,40L14.73,58.06
				l-0.3-25.33l71.77-9.12l7.57,13.3l11.42,35.93L92.46,114.7l-66.7,22.64L14.69,65.3z"/>
			<path class="st1" d="M151.43,45.47l-25.88,81.02l-26.01-4.55l38.36-97.93h20.29l37.32,97.93l-23.54,4.42l-28.48-11.44l11.7-22.37
				l8.58,11.05l-14.7-41.48L151.43,45.47z"/>
			<path class="st1" d="M198.51,109.32l-10.92-36.83l13.54-42.42l60.49-18.94l10.79,29.25l-50.97,8.17l-0.87-8.88l-7.29,29.88
				l7.95,30.76l-10.58,6.06l69.02-17.3l-0.35,25.98L206,123.01L198.51,109.32z"/>
			<path class="st1" d="M289.13,16.51l20.09-0.28l0.03,39.29l37.98-1.95l-0.13-36.85l25.96,4.28l-1.88,31.2l11.71-0.81l-2.86,26.19
				l-10.18,0.01l-2.27,40.61l-20.22,0.28l-0.06-40.97l-37.88-0.24l0.05,40.58l-25.95-4.15l2.07-36.49l-2.96,0.04l-1.31-20.21
				l5.41-0.33L289.13,16.51z"/>
			<path class="st1" d="M484.92,23.63l-3.97,97.43l-26.27,1.62l7.15-71.25l-5.13,12.28c-3.53,6.01-8.05,12.82-13.57,20.43
				l-20.23-3.68l-9.16-21.53l-2.31-13.11l-8.69,71.07l-25.27-7.36l17.56-95.92l20.13,2.24l20.41,42.9l29.21-37.38L484.92,23.63z"/>
			<path class="st1" d="M542.36,48.29l-33.63,82.63l-26.83-6.87l48.05-99.29l21.22,1.64l31.09,105.43l-24.97,2.72l-28.86-14.28
				l14.05-22.44l8.08,12.26l-12.01-44.57L542.36,48.29z"/>
			<path class="st1" d="M90.81,155.03l3.26,15.38l23.69-8.87l-1.01,18.37l-19.99,3.76l6.48,31.49l-20.41,0.88l-9.86-69.91l51-16.18
				l0.78,20.44L90.81,155.03z"/>
			<path class="st1" d="M162.42,151.72l-19.93,62.39l-20.03-3.51L152,135.19h15.62l28.74,75.41l-18.13,3.41l-21.93-8.81l9.01-17.23
				l6.61,8.51l-11.32-31.95L162.42,151.72z"/>
			<path class="st1" d="M252.45,215.01l-25.94-46.57l-2.9-9.91l-0.6,55.58l-20.13-3.51l5.31-75.51h15.72l26.14,42.36l2.7,15.42
				l0.6-56.99l20.13,3.61l-5.41,75.51H252.45z"/>
			<path class="st1" d="M287.77,155.02l15.62,0.01l3.17,32.85l21.93,0.62l-0.41,7.01l9.53-22.12l-1.98-25.04l9.02-3.3l-55.79,4.25
				l3.52-20.03l57.98,3.46l4,11.62l3.68,30.05l-16.25,31.13l-55.99,7.96L287.77,155.02z"/>
			<path class="st1" d="M364.5,201.25l-3.59-29.9l16.04-30.99l49.23-6.68l1.69,9.07l4.78-4.58l7.18,40.36l-13.65,37.77l-57.7-3.49
				L364.5,201.25z M417.72,157.61l-27.5-0.3l0.5-6.98l-9.57,22.12l2.09,24.81l-8.97,3.29l36.57-2.69l7.57-17.84L417.72,157.61z"/>
			<path class="st1" d="M528.34,140.04l-4.64,75.56l-20.42,0.84l6.69-55.18l-4.18,9.45c-2.83,4.61-6.45,9.82-10.86,15.64
				l-15.64-3.18l-6.76-16.86l-1.58-10.21l-7.88,55.03l-19.5-6.11l15.16-74.17l15.59,2.06l15.15,33.62l23.27-28.54L528.34,140.04z"/>
		</g>
	</g>
	<path class="st2" d="M271.11,222"/>
	<polygon class="st1" points="143.5,114.91 148.02,106.25 149.5,108.93 146.54,114.28 	"/>
	<polygon class="st2" points="372.49,81.17 372.2,112.99 378.68,89.68 380.13,78.65 	"/>
	<polygon class="st2" points="110.3,72.82 112.22,78.75 99.84,113.95 97.42,110.96 106.9,76.14 	"/>
</g>
<g id="Lag_2">
</g>
</svg>
